<?xml version="1.0" standalone="no"?>
<!DOCTYPE svg PUBLIC "-//W3C//DTD SVG 20010904//EN"
 "http://www.w3.org/TR/2001/REC-SVG-20010904/DTD/svg10.dtd">
<svg version="1.0" xmlns="http://www.w3.org/2000/svg"
 width="1000.000000pt" height="1000.000000pt" viewBox="0 0 1000.000000 1000.000000"
 preserveAspectRatio="xMidYMid meet">
<metadata>
Created by potrace 1.14, written by Peter Selinger 2001-2017
</metadata>
<g transform="translate(0.000000,1000.000000) scale(0.100000,-0.100000)"
fill="#000000" stroke="none">
<path d="M4625 9989 c-2065 -155 -3825 -1574 -4419 -3562 -219 -731 -265
-1523 -135 -2282 223 -1293 956 -2455 2032 -3222 1125 -802 2531 -1099 3897
-823 1239 250 2339 966 3077 2003 770 1080 1078 2437 852 3752 -223 1293 -956
2455 -2032 3222 -744 531 -1619 845 -2542 913 -161 11 -568 11 -730 -1z
m-1522 -2526 c699 -565 1740 -1417 1774 -1453 51 -52 97 -140 113 -213 6 -33
9 -186 8 -424 l-3 -372 -712 580 c-392 318 -715 579 -718 579 -3 0 -5 -583 -5
-1294 l0 -1295 -25 -80 c-14 -43 -43 -106 -66 -140 -79 -119 -42 -95 -1103
-695 -220 -124 -409 -226 -421 -226 -12 0 -31 9 -43 20 l-22 21 0 554 0 554
25 80 c29 92 87 183 153 242 54 47 96 72 499 299 l293 165 0 1573 0 1574 29
29 c51 51 73 43 224 -78z m4997 77 c19 -19 20 -33 20 -547 0 -584 -3 -610 -62
-731 -22 -44 -56 -90 -103 -137 -64 -64 -103 -89 -435 -276 l-365 -205 -5
-1576 -5 -1576 -24 -26 c-18 -19 -35 -26 -61 -26 -33 0 -117 66 -965 755 -512
416 -949 776 -972 801 -52 56 -97 148 -113 229 -7 40 -10 180 -8 413 l3 353
715 -582 715 -582 5 1314 5 1314 23 62 c33 88 89 170 158 232 75 67 1383 811
1427 811 15 0 36 -9 47 -20z"/>
</g>
</svg>
